<?xml version="1.0" encoding="UTF-8" standalone="no"?>
<svg
   xmlns:dc="http://purl.org/dc/elements/1.1/"
   xmlns:cc="http://creativecommons.org/ns#"
   xmlns:rdf="http://www.w3.org/1999/02/22-rdf-syntax-ns#"
   xmlns:svg="http://www.w3.org/2000/svg"
   xmlns="http://www.w3.org/2000/svg"
   xmlns:xlink="http://www.w3.org/1999/xlink"
   xmlns:sodipodi="http://sodipodi.sourceforge.net/DTD/sodipodi-0.dtd"
   xmlns:inkscape="http://www.inkscape.org/namespaces/inkscape"
   height="480pt"
   viewBox="0 -4 480 480"
   width="480pt"
   version="1.1"
   id="svg337"
   sodipodi:docname="peanut-butter.svg"
   inkscape:version="1.0.1 (c497b03c, 2020-09-10)">
  <metadata
     id="metadata343">
    <rdf:RDF>
      <cc:Work
         rdf:about="">
        <dc:format>image/svg+xml</dc:format>
        <dc:type
           rdf:resource="http://purl.org/dc/dcmitype/StillImage" />
        <dc:title></dc:title>
      </cc:Work>
    </rdf:RDF>
  </metadata>
  <defs
     id="defs341" />
  <sodipodi:namedview
     pagecolor="#ffffff"
     bordercolor="#666666"
     borderopacity="1"
     objecttolerance="10"
     gridtolerance="10"
     guidetolerance="10"
     inkscape:pageopacity="0"
     inkscape:pageshadow="2"
     inkscape:window-width="1203"
     inkscape:window-height="941"
     id="namedview339"
     showgrid="false"
     inkscape:zoom="1.1484375"
     inkscape:cx="320"
     inkscape:cy="250.34014"
     inkscape:window-x="1929"
     inkscape:window-y="61"
     inkscape:window-maximized="0"
     inkscape:current-layer="svg337" />
  <linearGradient
     id="lg1">
    <stop
       offset="0"
       stop-color="#fc5c7d"
       id="stop297" />
    <stop
       offset=".129"
       stop-color="#f35e85"
       id="stop299" />
    <stop
       offset=".343"
       stop-color="#d9659b"
       id="stop301" />
    <stop
       offset=".616"
       stop-color="#b070bf"
       id="stop303" />
    <stop
       offset=".934"
       stop-color="#777ff0"
       id="stop305" />
    <stop
       offset="1"
       stop-color="#6a82fb"
       id="stop307" />
  </linearGradient>
  <linearGradient
     id="linear0"
     gradientUnits="userSpaceOnUse"
     x1="8"
     x2="8"
     xlink:href="#lg1"
     y1="10.992"
     y2="491.2" />
  <linearGradient
     id="linear1"
     gradientUnits="userSpaceOnUse"
     x1="256"
     x2="256"
     xlink:href="#lg1"
     y1="10.992"
     y2="491.2" />
  <linearGradient
     id="linear2"
     gradientUnits="userSpaceOnUse"
     x1="120"
     x2="120"
     xlink:href="#lg1"
     y1="10.992"
     y2="491.2" />
  <linearGradient
     id="linear3"
     gradientUnits="userSpaceOnUse"
     x1="152"
     x2="152"
     xlink:href="#lg1"
     y1="10.992"
     y2="491.2" />
  <linearGradient
     id="linear4"
     gradientUnits="userSpaceOnUse"
     x1="360"
     x2="360"
     xlink:href="#lg1"
     y1="10.992"
     y2="491.2" />
  <linearGradient
     id="linear5"
     gradientUnits="userSpaceOnUse"
     x1="240.016"
     x2="240.016"
     xlink:href="#lg1"
     y1="10.992"
     y2="491.2" />
  <linearGradient
     id="linear6"
     gradientUnits="userSpaceOnUse"
     x1="144"
     x2="144"
     xlink:href="#lg1"
     y1="10.992"
     y2="491.2" />
  <linearGradient
     id="linear7"
     gradientUnits="userSpaceOnUse"
     x1="264"
     x2="264"
     xlink:href="#lg1"
     y1="10.992"
     y2="491.2" />
  <linearGradient
     id="linear8"
     gradientUnits="userSpaceOnUse"
     x1="228"
     x2="228"
     xlink:href="#lg1"
     y1="10.992"
     y2="491.2" />
  <path
     d="m0 456h16v16h-16zm0 0"
     fill="url(#linear0)"
     id="path319" />
  <path
     d="m397.65625 437.65625c1.5-1.5 2.34375-3.535156 2.34375-5.65625v-352c0-2.121094-.84375-4.15625-2.34375-5.65625l-21.65625-21.65625v-44.6875c0-4.417969-3.582031-8-8-8h-256c-4.417969 0-8 3.582031-8 8v44.6875l-21.65625 21.65625c-1.5 1.5-2.34375 3.535156-2.34375 5.65625v352c0 2.121094.84375 4.15625 2.34375 5.65625l18.34375 18.34375h-68.6875v16h448v-16h-100.6875zm-13.65625-53.65625h-288v-256h288zm-24-368v32h-240v-32zm-244.6875 48h249.375l19.3125 19.3125v28.6875h-288v-28.6875zm8 392-27.3125-27.3125v-28.6875h288v28.6875l-27.3125 27.3125zm0 0"
     fill="url(#linear1)"
     id="path321" />
  <path
     d="m112 352h16v16h-16zm0 0"
     fill="url(#linear2)"
     id="path323" />
  <path
     d="m144 352h16v16h-16zm0 0"
     fill="url(#linear3)"
     id="path325" />
  <path
     d="m352 352h16v16h-16zm0 0"
     fill="url(#linear4)"
     id="path327" />
  <path
     d="m292 272c-10.09375-.046875-19.925781 3.207031-28 9.265625-.679688-.511719-1.433594-.921875-2.136719-1.394531 3.335938-5.835938 5.3125-12.347656 5.792969-19.054688.886719-10.976562-3.089844-21.792968-10.875-29.578125-7.789062-7.789062-18.605469-11.765625-29.582031-10.878906-21.949219 1.648437-39.824219 18.289063-43.039063 40.066406-10.007812 1.40625-19.28125 6.054688-26.398437 13.230469-17.105469 15.660156-18.371094 42.183594-2.832031 59.398438 7.210937 7.128906 16.980468 11.070312 27.117187 10.945312 7.355469-.113281 14.566406-2.039062 21-5.601562 16.4375 16.347656 42.363281 18.195312 60.953125 4.34375 8.074219 6.054687 17.90625 9.304687 28 9.257812 23.167969 1.023438 42.816406-16.839844 44-40-1.183594-23.160156-20.832031-41.023438-44-40zm-125.742188 49.742188c-9.285156-10.976563-8.019531-27.375 2.839844-36.796876 5.496094-5.628906 13.003906-8.847656 20.871094-8.945312.472656 0 .941406 0 1.40625.039062 2.269531.140626 4.488281-.710937 6.082031-2.335937 1.601563-1.605469 2.449219-3.8125 2.328125-6.078125-.3125-8.351562 2.921875-16.445312 8.902344-22.28125 5.152344-5.292969 12.070312-8.511719 19.441406-9.046875 6.410156-.609375 12.757813 1.675781 17.3125 6.230469 4.554688 4.550781 6.839844 10.902344 6.230469 17.3125-.53125 7.367187-3.746094 14.285156-9.039063 19.441406-5.824218 6.011719-13.9375 9.246094-22.296874 8.894531-2.265626-.117187-4.472657.734375-6.074219 2.339844-1.601563 1.601563-2.445313 3.8125-2.324219 6.078125.3125 8.351562-2.921875 16.449219-8.90625 22.285156-9.417969 10.84375-25.792969 12.121094-36.773438 2.863282zm125.742188 14.257812c-8.355469.109375-16.363281-3.316406-22.054688-9.433594-1.554687-1.617187-3.703124-2.53125-5.945312-2.53125s-4.390625.914063-5.945312 2.53125c-5.691407 6.117188-13.699219 9.542969-22.054688 9.433594-7.425781.074219-14.617188-2.585938-20.207031-7.472656 6.332031-6.839844 10.441406-15.445313 11.78125-24.671875 9.023437-1.3125 17.449219-5.277344 24.210937-11.390625 2.320313 1.339844 4.433594 3.011718 6.269532 4.96875 1.519531 1.683594 3.679687 2.644531 5.945312 2.644531s4.425781-.960937 5.945312-2.644531c5.691407-6.117188 13.699219-9.542969 22.054688-9.433594 14.324219-1 26.796875 9.691406 28 24-1.203125 14.308594-13.675781 25-28 24zm0 0"
     fill="url(#linear5)"
     id="path329" />
  <path
     d="m136 152h16v16h-16zm0 0"
     fill="url(#linear6)"
     id="path331" />
  <path
     d="m168 152h192v16h-192zm0 0"
     fill="url(#linear7)"
     id="path333" />
  <path
     d="m120 184h216v16h-216zm0 0"
     fill="url(#linear8)"
     id="path335" />
</svg>
