<?xml version="1.0" encoding="UTF-8" standalone="no"?>
<svg
  xmlns:dc="http://purl.org/dc/elements/1.1/"
  xmlns:cc="http://creativecommons.org/ns#"
  xmlns:rdf="http://www.w3.org/1999/02/22-rdf-syntax-ns#"
  xmlns="http://www.w3.org/2000/svg"
  xmlns:xlink="http://www.w3.org/1999/xlink"
  xmlns:sodipodi="http://sodipodi.sourceforge.net/DTD/sodipodi-0.dtd"
  xmlns:inkscape="http://www.inkscape.org/namespaces/inkscape"
  height="480pt"
  viewBox="0 -4 480 480"
  width="480pt"
  version="1.1"
  id="svg337"
  sodipodi:docname="peanut-butter.svg"
  inkscape:version="1.0.1 (c497b03c, 2020-09-10)">
  <metadata
     id="metadata343">
    <rdf:RDF>
      <cc:Work
         rdf:about="">
        <dc:format>image/svg+xml</dc:format>
        <dc:type
           rdf:resource="http://purl.org/dc/dcmitype/StillImage" />
        <dc:title></dc:title>
      </cc:Work>
    </rdf:RDF>
  </metadata>
  <defs
     id="defs341" />
  <sodipodi:namedview
     pagecolor="#ffffff"
     bordercolor="#666666"
     borderopacity="1"
     objecttolerance="10"
     gridtolerance="10"
     guidetolerance="10"
     inkscape:pageopacity="0"
     inkscape:pageshadow="2"
     inkscape:window-width="1522"
     inkscape:window-height="941"
     id="namedview339"
     showgrid="false"
     inkscape:zoom="0.42578038"
     inkscape:cx="678.65939"
     inkscape:cy="393.35988"
     inkscape:window-x="1856"
     inkscape:window-y="23"
     inkscape:window-maximized="0"
     inkscape:current-layer="layer3"
     inkscape:document-rotation="0" />
  <linearGradient
     id="lg1">
    <stop
       offset="0"
       stop-color="#fc5c7d"
       id="stop297" />
    <stop
       offset=".129"
       stop-color="#f35e85"
       id="stop299" />
    <stop
       offset=".343"
       stop-color="#d9659b"
       id="stop301" />
    <stop
       offset=".616"
       stop-color="#b070bf"
       id="stop303" />
    <stop
       offset=".934"
       stop-color="#777ff0"
       id="stop305" />
    <stop
       offset="1"
       stop-color="#6a82fb"
       id="stop307" />
  </linearGradient>
  <linearGradient
     id="linear0"
     gradientUnits="userSpaceOnUse"
     x1="8"
     x2="8"
     xlink:href="#lg1"
     y1="10.992"
     y2="491.20001" />
  <linearGradient
     id="linear1"
     gradientUnits="userSpaceOnUse"
     x1="256"
     x2="256"
     xlink:href="#lg1"
     y1="10.992"
     y2="491.20001" />
  <linearGradient
     id="linear2"
     gradientUnits="userSpaceOnUse"
     x1="120"
     x2="120"
     xlink:href="#lg1"
     y1="10.992"
     y2="491.20001" />
  <linearGradient
     id="linear3"
     gradientUnits="userSpaceOnUse"
     x1="152"
     x2="152"
     xlink:href="#lg1"
     y1="10.992"
     y2="491.20001" />
  <linearGradient
     id="linear4"
     gradientUnits="userSpaceOnUse"
     x1="360"
     x2="360"
     xlink:href="#lg1"
     y1="10.992"
     y2="491.20001" />
  <linearGradient
     id="linear5"
     gradientUnits="userSpaceOnUse"
     x1="240.01601"
     x2="240.01601"
     xlink:href="#lg1"
     y1="10.992"
     y2="491.20001" />
  <linearGradient
     id="linear6"
     gradientUnits="userSpaceOnUse"
     x1="144"
     x2="144"
     xlink:href="#lg1"
     y1="10.992"
     y2="491.20001" />
  <linearGradient
     id="linear7"
     gradientUnits="userSpaceOnUse"
     x1="264"
     x2="264"
     xlink:href="#lg1"
     y1="10.992"
     y2="491.20001" />
  <linearGradient
     id="linear8"
     gradientUnits="userSpaceOnUse"
     x1="228"
     x2="228"
     xlink:href="#lg1"
     y1="10.992"
     y2="491.20001" />
  <path
     d="m 0,456 h 16 v 16 H 0 Z m 0,0"
     fill="url(#linear0)"
     id="path319" />
  <path
     d="M 397.65625,437.65625 C 399.15625,436.15625 400,434.12109 400,432 V 80 c 0,-2.121094 -0.84375,-4.15625 -2.34375,-5.65625 L 376,52.6875 V 8 c 0,-4.417969 -3.58203,-8 -8,-8 H 112 c -4.41797,0 -8,3.582031 -8,8 V 52.6875 L 82.34375,74.34375 C 80.84375,75.84375 80,77.878906 80,80 v 352 c 0,2.12109 0.84375,4.15625 2.34375,5.65625 L 100.6875,456 H 32 v 16 H 480 V 456 H 379.3125 Z M 384,384 H 96 V 128 H 384 Z M 360,16 V 48 H 120 V 16 Z M 115.3125,64 h 249.375 L 384,83.3125 V 112 H 96 V 83.3125 Z m 8,392 L 96,428.6875 V 400 h 288 v 28.6875 L 356.6875,456 Z m 0,0"
     fill="url(#linear1)"
     id="path321" />
  <path
     d="m 112,352 h 16 v 16 h -16 z m 0,0"
     fill="url(#linear2)"
     id="path323" />
  <path
     d="m 144,352 h 16 v 16 h -16 z m 0,0"
     fill="url(#linear3)"
     id="path325" />
  <path
     d="m 352,352 h 16 v 16 h -16 z m 0,0"
     fill="url(#linear4)"
     id="path327" />
  <path
     d="m 292,272 c -10.09375,-0.0469 -19.92578,3.20703 -28,9.26562 -0.67969,-0.51171 -1.43359,-0.92187 -2.13672,-1.39453 3.33594,-5.83593 5.3125,-12.34765 5.79297,-19.05468 0.88672,-10.97657 -3.08984,-21.79297 -10.875,-29.57813 -7.78906,-7.78906 -18.60547,-11.76562 -29.58203,-10.8789 -21.94922,1.64843 -39.82422,18.28906 -43.03906,40.0664 -10.00782,1.40625 -19.28125,6.05469 -26.39844,13.23047 -17.10547,15.66016 -18.3711,42.18359 -2.83203,59.39844 7.21093,7.1289 16.98047,11.07031 27.11718,10.94531 7.35547,-0.11328 14.56641,-2.03906 21,-5.60156 16.4375,16.34765 42.36329,18.19531 60.95313,4.34375 8.07422,6.05468 17.90625,9.30468 28,9.25781 23.16797,1.02344 42.81641,-16.83984 44,-40 -1.18359,-23.16016 -20.83203,-41.02344 -44,-40 z m -125.74219,49.74219 c -9.28515,-10.97657 -8.01953,-27.375 2.83985,-36.79688 5.49609,-5.6289 13.0039,-8.84765 20.87109,-8.94531 0.47266,0 0.94141,0 1.40625,0.0391 2.26953,0.14063 4.48828,-0.71094 6.08203,-2.33594 1.60156,-1.60546 2.44922,-3.8125 2.32813,-6.07812 -0.3125,-8.35156 2.92187,-16.44531 8.90234,-22.28125 5.15234,-5.29297 12.07031,-8.51172 19.44141,-9.04688 6.41015,-0.60937 12.75781,1.67579 17.3125,6.23047 4.55468,4.55078 6.83984,10.90235 6.23046,17.3125 -0.53125,7.36719 -3.74609,14.28516 -9.03906,19.44141 -5.82422,6.01172 -13.9375,9.24609 -22.29687,8.89453 -2.26563,-0.11719 -4.47266,0.73438 -6.07422,2.33985 -1.60156,1.60156 -2.44531,3.8125 -2.32422,6.07812 0.3125,8.35156 -2.92188,16.44922 -8.90625,22.28516 -9.41797,10.84375 -25.79297,12.12109 -36.77344,2.86328 z M 292,336 c -8.35547,0.10937 -16.36328,-3.31641 -22.05469,-9.43359 -1.55469,-1.61719 -3.70312,-2.53125 -5.94531,-2.53125 -2.24219,0 -4.39063,0.91406 -5.94531,2.53125 C 252.36328,332.68359 244.35547,336.10937 236,336 c -7.42578,0.0742 -14.61719,-2.58594 -20.20703,-7.47266 6.33203,-6.83984 10.4414,-15.44531 11.78125,-24.67187 9.02344,-1.3125 17.44922,-5.27735 24.21094,-11.39063 2.32031,1.33985 4.43359,3.01172 6.26953,4.96875 1.51953,1.6836 3.67968,2.64453 5.94531,2.64453 2.26562,0 4.42578,-0.96093 5.94531,-2.64453 C 275.63672,291.31641 283.64453,287.89062 292,288 c 14.32422,-1 26.79687,9.69141 28,24 -1.20313,14.30859 -13.67578,25 -28,24 z m 0,0"
     fill="url(#linear5)"
     id="path329" />
  <path
     d="m 136,152 h 16 v 16 h -16 z m 0,0"
     fill="url(#linear6)"
     id="path331" />
  <path
     d="m 168,152 h 192 v 16 H 168 Z m 0,0"
     fill="url(#linear7)"
     id="path333" />
  <path
     d="m 120,184 h 216 v 16 H 120 Z m 0,0"
     fill="url(#linear8)"
     id="path335" />
  <g
     inkscape:groupmode="layer"
     id="layer3"
     inkscape:label="Layer 1" />
</svg>
